<svg width="17" height="32" viewBox="0 0 17 32" fill="none" xmlns="http://www.w3.org/2000/svg">
<path d="M8.5 0C6.54198 0.00226696 4.65262 0.721694 3.18899 2.02231C1.72536 3.32294 0.788854 5.11465 0.55647 7.05882H0.5V22.9459H16.5V7.05882H16.4435C16.2111 5.11465 15.2746 3.32294 13.811 2.02231C12.3474 0.721694 10.458 0.00226696 8.5 0ZM14.6176 21.0635H2.38235V12.3859C2.55692 12.5964 2.7801 12.7612 3.03263 12.8662C3.28515 12.9711 3.55943 13.013 3.83177 12.9882C5.04588 12.9882 5.83647 12.3106 5.83647 11.4541V10.6353C5.82423 10.5223 5.83593 10.408 5.87079 10.2998C5.90565 10.1917 5.9629 10.0921 6.03881 10.0075C6.11472 9.92291 6.20759 9.85527 6.31137 9.80897C6.41516 9.76266 6.52753 9.73873 6.64118 9.73873C6.75482 9.73873 6.8672 9.76266 6.97098 9.80897C7.07476 9.85527 7.16763 9.92291 7.24354 10.0075C7.31945 10.0921 7.3767 10.1917 7.41156 10.2998C7.44643 10.408 7.45812 10.5223 7.44588 10.6353V13.7318C7.44897 13.9809 7.50493 14.2266 7.61006 14.4525C7.71519 14.6784 7.86708 14.8794 8.0557 15.0422C8.24432 15.205 8.46536 15.326 8.70421 15.397C8.94305 15.468 9.19424 15.4875 9.44118 15.4541C9.68224 15.4885 9.92781 15.4721 10.1622 15.4062C10.3966 15.3402 10.6146 15.2261 10.8024 15.0711C10.9902 14.9161 11.1436 14.7236 11.2528 14.5059C11.3619 14.2883 11.4245 14.0503 11.4365 13.8071V11.7271C11.4213 11.5516 11.4428 11.375 11.4996 11.2083C11.5563 11.0417 11.6471 10.8886 11.7661 10.7589C11.8851 10.6291 12.0298 10.5255 12.191 10.4547C12.3521 10.3838 12.5263 10.3472 12.7024 10.3472C12.8784 10.3472 13.0526 10.3838 13.2137 10.4547C13.3749 10.5255 13.5196 10.6291 13.6386 10.7589C13.7576 10.8886 13.8484 11.0417 13.9052 11.2083C13.9619 11.375 13.9834 11.5516 13.9682 11.7271C13.9651 11.7552 13.9651 11.7836 13.9682 11.8118C13.992 11.994 14.0626 12.1669 14.1731 12.3137C14.2836 12.4605 14.4303 12.5762 14.5988 12.6494V21.12L14.6176 21.0635Z" fill="#2D3440"/>
<path d="M7.08824 30.5882C7.08824 30.9627 7.23698 31.3217 7.50173 31.5865C7.76649 31.8513 8.12558 32 8.5 32C8.87442 32 9.23351 31.8513 9.49827 31.5865C9.76302 31.3217 9.91176 30.9627 9.91176 30.5882V23.8871H7.08824V30.5882Z" fill="#2D3440"/>
</svg>
