<svg width="19" height="32" viewBox="0 0 19 32" fill="none" xmlns="http://www.w3.org/2000/svg">
<path d="M18.8243 18.4851C18.4176 9.40971 10.5094 0.620945 10.1569 0.238825C10.1569 0.238825 10.1569 0.238825 10.1118 0.238825L10.0033 0.114636L9.8858 0.038212H9.37968L9.20796 0H9.16277L9.00009 0.114636L8.90067 0.200613C8.90067 0.200613 8.90067 0.200613 8.85548 0.200613C8.503 0.620945 0.594824 9.41926 0.170042 18.4851C0.165548 18.5518 0.165548 18.6189 0.170042 18.6857C0.170042 19.0296 0.170042 19.3735 0.170042 19.7269C0.513483 29.5665 9.20796 31.9739 9.28026 31.993H9.50621C9.58127 32.0023 9.6571 32.0023 9.73216 31.993C9.8135 31.993 18.4989 29.5188 18.8333 19.7269C18.8333 19.3735 18.8333 19.0296 18.8333 18.6857C18.8333 18.6188 18.8243 18.5519 18.8243 18.4851ZM2.55605 15.132C4.36129 16.772 6.40236 18.0974 8.60242 19.0582V23.4049C6.38813 22.2489 2.98083 20.195 1.97763 18.3895C2.05902 17.2871 2.24369 16.1959 2.52894 15.132H2.55605ZM4.36364 10.2599C5.54575 11.5651 6.99608 12.5653 8.60242 13.1831V16.947C6.58304 16.0461 4.74312 14.7496 3.17967 13.1258C3.52349 12.1479 3.91876 11.1912 4.36364 10.2599ZM15.8508 13.1258C14.2881 14.7505 12.448 16.0471 10.4281 16.947V13.1831C12.0215 12.5601 13.459 11.5602 14.6307 10.2599C15.0866 11.1779 15.494 12.1219 15.8508 13.0876V13.1258ZM10.4281 11.1579V3.5155C11.636 5.08129 12.7383 6.73485 13.7269 8.46396C12.8552 9.6354 11.7129 10.55 10.41 11.1197L10.4281 11.1579ZM10.4281 23.424V19.0582C12.6365 18.106 14.6868 16.787 16.5016 15.1511C16.7784 16.219 16.954 17.3135 17.0258 18.4182C16.0316 20.195 12.6243 22.2394 10.41 23.3857L10.4281 23.424ZM8.6205 11.1579C7.31158 10.5809 6.16813 9.65222 5.30358 8.46396C6.2904 6.71844 7.39276 5.04887 8.60242 3.46774L8.6205 11.1579ZM2.16742 21.4083C4.14409 23.05 6.30555 24.4265 8.60242 25.5065V29.7098C6.95928 29.0042 5.50951 27.8747 4.38546 26.4246C3.2614 24.9745 2.49886 23.2499 2.16742 21.4083ZM10.41 29.7194V25.497C12.7088 24.4248 14.8707 23.0511 16.845 21.4083C16.5276 23.2569 15.7704 24.9898 14.6447 26.4437C13.5189 27.8977 12.0616 29.025 10.41 29.7194Z" fill="#2D3440"/>
</svg>
