<svg width="20" height="32" viewBox="0 0 20 32" fill="none" xmlns="http://www.w3.org/2000/svg">
<path d="M11.6889 5.06946C11.6889 3.72496 11.1972 2.43552 10.3221 1.48481C9.4469 0.534102 8.25991 0 7.02224 0C5.78457 0 4.59759 0.534102 3.72242 1.48481C2.84725 2.43552 2.35559 3.72496 2.35559 5.06946V19.8243C1.15922 21.1507 0.492505 22.936 0.500064 24.793C0.496856 25.9823 0.765418 27.1538 1.28166 28.2026C1.79791 29.2514 2.5457 30.1445 3.45797 30.802C4.37024 31.4595 5.41847 31.8607 6.50864 31.9697C7.59882 32.0788 8.69686 31.8921 9.70429 31.4266C10.7117 30.9611 11.597 30.2312 12.2809 29.3025C12.9647 28.3737 13.4256 27.2751 13.6223 26.1052C13.819 24.9352 13.7453 23.7306 13.4079 22.5992C13.0704 21.4678 12.4798 20.4451 11.6889 19.6228V5.06946ZM11.8559 24.793C11.8653 25.6725 11.6676 26.5399 11.2815 27.3131C10.8955 28.0862 10.334 28.7393 9.65026 29.2104C8.96655 29.6814 8.18334 29.9549 7.375 30.0047C6.56666 30.0544 5.76002 29.879 5.03166 29.4949C4.3033 29.1108 3.67741 28.5308 3.2134 27.8101C2.74939 27.0893 2.46267 26.2517 2.38046 25.3767C2.29825 24.5017 2.42328 23.6185 2.74368 22.8107C3.06408 22.003 3.56921 21.2976 4.21112 20.7616V5.06946C4.21112 4.25955 4.50729 3.48281 5.03448 2.91012C5.56166 2.33743 6.27669 2.01569 7.02224 2.01569C7.7678 2.01569 8.48282 2.33743 9.01001 2.91012C9.53719 3.48281 9.83337 4.25955 9.83337 5.06946V20.5701C10.4595 21.0441 10.9706 21.6758 11.3228 22.4113C11.6751 23.1467 11.858 23.964 11.8559 24.793Z" fill="#2D3440"/>
<path d="M8.0335 21.6384V5.14001C8.0335 4.87271 7.93576 4.61637 7.76177 4.42736C7.58778 4.23835 7.3518 4.13217 7.10574 4.13217C6.85968 4.13217 6.6237 4.23835 6.44971 4.42736C6.27572 4.61637 6.17798 4.87271 6.17798 5.14001V21.6384C5.55896 21.8762 5.03724 22.344 4.70503 22.9592C4.37282 23.5744 4.25151 24.2974 4.36253 25.0003C4.47356 25.7033 4.80978 26.341 5.31176 26.8007C5.81374 27.2605 6.44917 27.5126 7.10574 27.5126C7.76231 27.5126 8.39774 27.2605 8.89972 26.8007C9.4017 26.341 9.73792 25.7033 9.84895 25.0003C9.95997 24.2974 9.83866 23.5744 9.50645 22.9592C9.17424 22.344 8.65252 21.8762 8.0335 21.6384Z" fill="#2D3440"/>
<path d="M19.1667 3.94068H13.6001V5.95637H19.1667V3.94068Z" fill="#2D3440"/>
<path d="M19.1667 7.97206H13.6001V9.98775H19.1667V7.97206Z" fill="#2D3440"/>
<path d="M19.1667 12.0034H13.6001V14.0191H19.1667V12.0034Z" fill="#2D3440"/>
<path d="M19.1667 16.0348H13.6001V18.0505H19.1667V16.0348Z" fill="#2D3440"/>
</svg>
